<svg width="339" height="90" viewBox="0 0 339 90" fill="none" xmlns="http://www.w3.org/2000/svg">
<path d="M68.8493 0H20.5676C9.20315 0 0 9.26316 0 20.7018V69.2982C0 80.7368 9.20315 90 20.5676 90C31.9321 90 68.8493 90 68.8493 90C80.2138 90 89.4169 80.7368 89.4169 69.2982V20.7018C89.4169 9.26316 80.2138 0 68.8493 0ZM40.9784 62.8597C40.9784 65.7018 39.3923 68.2982 36.8649 69.5614L26.0756 74.9825V59C26.0756 56.1579 27.6617 53.5614 30.1891 52.2982L40.9784 46.8772V62.8597ZM63.3413 51.614C63.3413 54.4561 61.7378 57.0526 59.2278 58.3333L48.4385 63.7544V27.1404C48.4385 24.2982 50.0247 21.7018 52.552 20.4386L63.3413 15.0175V51.614ZM131.249 24.6316V14.3509C131.249 11.8772 132.644 9.61403 134.84 8.50877L144.235 3.78947C144.235 15.8421 144.235 27.8947 144.235 39.9298C144.235 42.6491 143.939 45.3158 142.858 47.8246C141.185 51.7544 138.117 54.0175 134.125 55.1754C132.243 55.7193 130.326 56 128.391 56.0351C125.532 56.0877 123.371 56.0526 120.512 56.0526C120.408 56.0526 111.937 56.0526 111.78 56.0351V44.6316H125.898C128.983 44.4211 130.744 42.4035 131.093 39.2982C131.197 38.386 131.249 37.4561 131.249 36.5439V24.6491V24.6316ZM237.609 35.0877C238.393 37.8421 238.532 40.807 238.253 43.6667C237.818 48.1579 235.604 51.4912 231.717 53.6842C228.37 55.5789 224.693 56.2456 220.945 56.5439C218.61 56.7193 215.978 56.7193 213.625 56.5439C209.86 56.2632 206.199 55.5789 202.853 53.6842C198.966 51.4912 196.735 48.1754 196.316 43.6667C196.177 42.2281 196.194 41.1404 196.194 39.6491H208.901C208.901 40.1404 208.901 40.2105 208.901 40.6667C208.936 43.4737 209.982 44.9649 212.683 45.614C215.612 46.3333 218.976 46.3333 221.904 45.614C224.675 44.9298 225.704 43.2456 225.756 40.6491C225.756 40.2281 225.686 39.807 225.599 39.3509C225.338 38.193 224.501 37.4737 223.49 36.9298C221.921 36.0877 219.237 35.7368 217.511 35.386C214.217 34.7018 210.923 34.0877 207.663 33.2982C205.31 32.7368 203.114 31.7895 201.145 30.3333C200.866 30.1228 200.604 29.9123 200.343 29.6842C198.739 28.2456 197.589 26.4561 196.979 24.2982C196.438 22.4211 196.194 20.5789 196.229 18.6491C196.229 17.8421 196.247 17.0702 196.334 16.1579C196.77 11.6491 198.983 8.33333 202.87 6.14035C206.217 4.24561 209.894 3.57895 213.642 3.2807C215.978 3.10526 218.61 3.10526 220.963 3.2807C224.728 3.5614 228.388 4.24561 231.734 6.14035C235.621 8.33333 237.852 11.6491 238.271 16.1579C238.41 17.5965 238.393 18.6842 238.393 20.1754H225.686C225.686 19.6842 225.686 19.614 225.686 19.1579C225.651 16.3509 224.588 14.8772 221.904 14.2105C218.958 13.4912 215.629 13.4912 212.683 14.2105C210.696 14.7018 209.598 15.6491 209.162 17.2456C208.936 18.0702 208.953 19.0702 209.162 20.0351C209.424 21.193 210.26 21.9123 211.271 22.4561C212.84 23.2982 215.368 23.6491 217.076 24C220.37 24.6842 223.664 25.2982 226.924 26.0877C229.277 26.6491 231.473 27.614 233.443 29.0526C233.722 29.2632 233.983 29.4737 234.244 29.7018C235.848 31.1404 236.998 32.9298 237.609 35.0877ZM258.734 39.4386L265.967 21.1404L273.201 39.4386H258.716H258.734ZM279.79 56.0702H293.577L272.905 3.78947H259.082L238.41 56.0702H252.198L255.021 48.9474H277.018L279.842 56.0702H279.79ZM178.328 36.8772V3.77193H191.314V33.193C191.314 39.0175 190.652 44.9649 186.974 49.6842C185.614 51.4211 184.011 52.9474 182.128 54.0526C179.13 55.7895 173.727 56.6316 170.206 56.6316C166.685 56.6316 161.282 55.7895 158.284 54.0526C156.384 52.9474 154.78 51.4211 153.438 49.6842C149.76 44.9649 149.098 39.0351 149.098 33.193V3.77193H162.083V36.8596C162.083 41.8596 164.977 45.8421 170.206 45.8421C175.435 45.8421 178.328 41.8421 178.328 36.8596V36.8772ZM339 3.77193V56.0526H326.014C325.422 55.0175 309.961 26.8596 309.787 26.5614V56.0526H296.801V3.77193H309.787C309.787 3.77193 325.387 32.1754 326.014 33.2632V3.77193H339Z" fill="#C0A062"/>
</svg>
